<svg xmlns="http://www.w3.org/2000/svg" width="23.063" height="22.125" viewBox="0 0 23.063 22.125">
<defs>
    <style>
      .arrow-down-svg {
        fill: #fff;
        fill-rule: evenodd;
      }
    </style>
  </defs>
  <path id="Прямоугольник_скругл._углы_1_копия_4" data-name="Прямоугольник, скругл. углы 1 копия 4" class="arrow-down-svg" d="M267.222,856.363l10.142-10.142a1,1,0,1,1,1.414,1.414l-10.142,10.142A1,1,0,1,1,267.222,856.363Zm0.5-.05-10.033-10.032a0.992,0.992,0,0,0-1.4,1.4l10.033,10.033A0.992,0.992,0,0,0,267.718,856.313Zm-0.5-9.95,10.142-10.143a1,1,0,1,1,1.414,1.415l-10.142,10.143A1,1,0,1,1,267.222,846.363Z" transform="translate(-256 -835.938)"/>
</svg>
